No subtitles, audio in German.


General
Complete name                    : C:Sissi.Schicksalsjahre.einer.Kaiserin[1957]DvDrip[de].avi
Format                           : MPEG-PS
File size                        : 764 MiB
Duration                         : 1h 44mn
Overall bit rate                 : 1 025 Kbps

Video
ID                               : 224 (0xE0)
Format                           : MPEG Video
Format version                   : Version 1
Format settings, Matrix          : Default
Duration                         : 1h 44mn
Bit rate mode                    : Variable
Bit rate                         : 872 Kbps
Width                            : 352 pixels
Height                           : 288 pixels
Display aspect ratio             : 4:3
Frame rate                       : 25.000 fps
Scan type                        : Progressive
Bits/(Pixel*Frame)               : 0.344
Stream size                      : 650 MiB (85%)

Audio
ID                               : 192 (0xC0)
Format                           : MPEG Audio
Format version                   : Version 1
Format profile                   : Layer 2
Duration                         : 1h 44mn
Bit rate mode                    : Constant
Bit rate                         : 112 Kbps
Channel(s)                       : 2 channels
Sampling rate                    : 44.1 KHz
Resolution                       : 16 bits
Stream size                      : 83.5 MiB (11%)

